<?xml version="1.0" encoding="utf-8"?>
<!-- Generator: Adobe Illustrator 16.0.0, SVG Export Plug-In . SVG Version: 6.00 Build 0)  -->
<!DOCTYPE svg PUBLIC "-//W3C//DTD SVG 1.1//EN" "http://www.w3.org/Graphics/SVG/1.1/DTD/svg11.dtd">
<svg version="1.1" id="Layer_1" xmlns="http://www.w3.org/2000/svg" xmlns:xlink="http://www.w3.org/1999/xlink" x="0px" y="0px"
	 width="187px" height="158.078px" viewBox="0 0 187 158.078" enable-background="new 0 0 187 158.078" xml:space="preserve">
<g>
	<g opacity="0.8">
		<g>
			<path d="M146.178,51.645C136.063,31.393,115.135,17.444,91,17.444c-24.135,0-45.062,13.949-55.178,34.201H146.178z"/>
			<path d="M35.769,106.435C45.865,126.743,66.823,140.739,91,140.739c24.176,0,45.135-13.996,55.231-34.305H35.769L35.769,106.435z
				"/>
		</g>
		<g>
			<path d="M26.332,51.645h7.312C43.907,30.283,65.758,15.499,91,15.499c25.243,0,47.092,14.784,57.358,36.146h12.311
				c-2.01-1.47-2.527-4.077-1.027-6.659c1.98-3.417,0.373-6.205-3.578-6.198c-3.951,0.01-6.178-3.057-4.949-6.81
				c1.229-3.754-0.926-6.146-4.785-5.317c-3.861,0.831-6.68-1.704-6.258-5.632c0.424-3.927-2.184-5.82-5.787-4.206
				c-3.604,1.615-6.887-0.279-7.289-4.21c-0.406-3.928-3.35-5.237-6.537-2.909s-6.793,1.158-8.01-2.602
				c-1.213-3.76-4.357-4.428-6.994-1.487c-2.641,2.94-6.406,2.545-8.373-0.879c-1.971-3.426-5.188-3.426-7.155,0
				c-1.968,3.425-5.735,3.82-8.372,0.879c-2.638-2.94-5.787-2.272-7,1.487c-1.212,3.759-4.815,4.93-8.006,2.602
				c-3.19-2.328-6.132-1.019-6.536,2.909c-0.405,3.931-3.685,5.825-7.291,4.21c-3.605-1.615-6.21,0.278-5.789,4.206
				c0.421,3.929-2.394,6.463-6.256,5.632c-3.861-0.829-6.016,1.563-4.787,5.317c1.229,3.753-0.998,6.82-4.947,6.81
				c-3.951-0.007-5.561,2.781-3.578,6.198C28.859,47.568,28.341,50.175,26.332,51.645z"/>
			<path d="M160.668,106.435h-12.264c-10.244,21.416-32.123,36.25-57.405,36.25c-25.281,0-47.16-14.834-57.404-36.25h-7.264
				c2.011,1.469,2.528,4.075,1.03,6.657c-1.982,3.418-0.373,6.205,3.578,6.199c3.949-0.011,6.176,3.058,4.947,6.81
				c-1.229,3.754,0.926,6.146,4.787,5.317c3.863-0.832,6.677,1.703,6.256,5.631c-0.421,3.929,2.184,5.82,5.789,4.207
				c3.605-1.614,6.885,0.279,7.291,4.209c0.404,3.929,3.345,5.238,6.536,2.91s6.794-1.158,8.006,2.603
				c1.213,3.758,4.362,4.428,7,1.485c2.637-2.938,6.404-2.545,8.372,0.879c1.967,3.427,5.188,3.427,7.155,0
				c1.967-3.424,5.734-3.819,8.373-0.879c2.637,2.94,5.785,2.272,6.998-1.485c1.213-3.761,4.816-4.931,8.006-2.603
				s6.131,1.019,6.537-2.91c0.404-3.93,3.684-5.823,7.289-4.209c3.605,1.615,6.211-0.278,5.791-4.207
				c-0.422-3.928,2.393-6.463,6.254-5.631c3.863,0.828,6.018-1.563,4.789-5.317c-1.23-3.752,0.998-6.816,4.947-6.81
				c3.951,0.006,5.559-2.781,3.578-6.199C158.141,110.51,158.656,107.903,160.668,106.435z"/>
		</g>
	</g>
	<polygon opacity="0.8" enable-background="new    " points="184.439,52.935 93.5,52.935 2.561,52.935 23.561,79.04 2.561,105.146 
		93.5,105.146 184.439,105.146 163.438,79.04 	"/>
	<text transform="matrix(1.1687 0 0 1 35.7686 84.0391)" fill="#FFFFFF" font-family="'Gabriola'" font-size="15">Platos Express</text>
	<text transform="matrix(1 0 0 1 76.9995 123.5859)" fill="#FFFFFF" font-family="'Gabriola'" font-size="18">2016</text>
</g>
<g id="XMLID_95_">
	<path id="XMLID_98_" fill="#FFFFFF" d="M85.616,39.372c-0.128,0.005-0.256,0.008-0.384,0.008c-0.351,0-0.692-0.025-1.026-0.063
		l-7.733,3.808c-0.38,0.187-0.38,0.49,0,0.676l2.001,0.986c0.379,0.187,0.994,0.187,1.373,0l9.294-4.576l-1.723-0.915L85.616,39.372
		z"/>
	<path id="XMLID_97_" fill="#FFFFFF" d="M105.967,33.271c-0.361-0.179-0.951-0.179-1.313,0l-5.012,2.467
		c-0.474,0.233-1.242,0.233-1.718,0c-0.471-0.233-0.471-0.611,0-0.844l4.986-2.455c0.377-0.186,0.377-0.487,0-0.673
		c-0.379-0.186-0.988-0.186-1.365,0l-4.983,2.455c-0.476,0.234-1.242,0.234-1.715,0c-0.474-0.233-0.474-0.611,0-0.844l5.008-2.467
		c0.365-0.179,0.365-0.469,0-0.648c-0.361-0.179-0.951-0.179-1.314,0l-5.637,2.776c-1.356,0.667-1.784,1.605-1.346,2.458l3.78,1.861
		c1.732,0.215,3.639,0.004,4.992-0.663l5.637-2.775C106.33,33.74,106.33,33.45,105.967,33.271z"/>
	<path id="XMLID_96_" fill="#FFFFFF" d="M78.583,30.514c-0.193-0.095-0.454-0.147-0.723-0.147c-0.057,0-0.114,0.002-0.17,0.007
		c-0.326,0.027-0.606,0.13-0.75,0.277c-1.651,1.68-0.961,3.691,1.719,5.011l4.795,2.361c0.473,0.233,1.113,0.363,1.776,0.363
		c0.071,0,0.142-0.001,0.213-0.004l2.785-0.117l12.142,6.449c0.188,0.1,0.45,0.159,0.729,0.161c0.006,0,0.012,0,0.019,0
		c0.271,0,0.53-0.053,0.725-0.147l2.08-1.024c0.193-0.094,0.3-0.222,0.3-0.356c0-0.134-0.105-0.262-0.3-0.356L78.583,30.514z"/>
</g>
</svg>
